<?xml version="1.0" encoding="UTF-8"?>
<!DOCTYPE svg PUBLIC "-//W3C//DTD SVG 1.1//EN" "http://www.w3.org/Graphics/SVG/1.1/DTD/svg11.dtd">
<!-- Creator: CorelDRAW -->
<svg xmlns="http://www.w3.org/2000/svg" xml:space="preserve" width="45px" height="25px" version="1.1" style="shape-rendering:geometricPrecision; text-rendering:geometricPrecision; image-rendering:optimizeQuality; fill-rule:evenodd; clip-rule:evenodd"
viewBox="0 0 45 25.002"
 xmlns:xlink="http://www.w3.org/1999/xlink"
 xmlns:xodm="http://www.corel.com/coreldraw/odm/2003">
 <defs>
  <style type="text/css">
   <![CDATA[
    .fil1 {fill:white}
    .fil0 {fill:white;fill-rule:nonzero}
   ]]>
  </style>
 </defs>
 <g id="Camada_x0020_1">
  <metadata id="CorelCorpID_0Corel-Layer"/>
  <g id="_2432642690560">
   <path class="fil0" d="M0.204 13.041c7.838,-8.483 15.203,-12.441 22.551,-12.296 7.35,0.145 14.444,4.391 21.761,12.317 0.462,0.502 0.436,1.198 -0.018,1.673 -2.268,2.454 -4.63,4.495 -7.053,6.125 -4.866,3.272 -9.988,4.891 -15.13,4.881 -5.144,-0.01 -10.247,-1.649 -15.069,-4.892 -2.433,-1.635 -4.798,-3.682 -7.061,-6.133 -0.463,-0.503 -0.436,-1.2 0.019,-1.675zm22.489 -9.627c-6.081,-0.12 -12.378,3.256 -19.263,10.471 1.865,1.919 3.79,3.54 5.754,4.861 4.265,2.868 8.711,4.318 13.131,4.326 4.425,0.008 8.89,-1.423 13.192,-4.316 1.962,-1.319 3.89,-2.943 5.764,-4.871 -6.432,-6.746 -12.51,-10.351 -18.578,-10.471z"/>
   <ellipse class="fil1" cx="22.35" cy="13.241" rx="7.85" ry="7.5"/>
  </g>
 </g>
</svg>

